<svg viewBox="0 0 24 24" xmlns="http://www.w3.org/2000/svg">
	<path d="M12 1.5C6.20101 1.5 1.5 6.20101 1.5 12C1.5 17.799 6.20101 22.5 12 22.5C17.799 22.5 22.5 17.799 22.5 12C22.5 9.21523 21.3938 6.54451 19.4246 4.57538C17.4555 2.60625 14.7848 1.5 12 1.5ZM7.5 19.785V18.285C7.42733 16.9658 8.43145 15.8344 9.75 15.75H14.25C15.5716 15.8344 16.577 16.9704 16.5 18.2925V19.7925C13.7196 21.4158 10.2804 21.4158 7.5 19.7925V19.785ZM18 18.69V18.2325C18.0466 16.104 16.3775 14.3314 14.25 14.25H9.75C7.6225 14.3314 5.95341 16.104 6 18.2325V18.6975C3.21867 16.2098 2.26095 12.2638 3.59245 8.7779C4.92395 5.29199 8.26846 2.9893 12 2.9893C15.7315 2.9893 19.0761 5.29199 20.4076 8.7779C21.739 12.2638 20.7813 16.2098 18 18.6975V18.69ZM12 5.25C9.92893 5.25 8.25 6.92893 8.25 9C8.25 11.0711 9.92893 12.75 12 12.75C14.0711 12.75 15.75 11.0711 15.75 9C15.75 8.00544 15.3549 7.05161 14.6517 6.34835C13.9484 5.64509 12.9946 5.25 12 5.25ZM12 11.25C10.7574 11.25 9.75 10.2426 9.75 9C9.75 7.75736 10.7574 6.75 12 6.75C13.2426 6.75 14.25 7.75736 14.25 9C14.25 9.59674 14.0129 10.169 13.591 10.591C13.169 11.0129 12.5967 11.25 12 11.25Z"/>
</svg>
