<svg viewBox="0 0 24 24" xmlns="http://www.w3.org/2000/svg">
	<path d="M20.9374 6.28569H17.5V4.14287C17.5 2.96123 16.5748 2 15.4375 2H8.56249C7.42516 2 6.49998 2.96123 6.49998 4.14287V6.28573H3.06251C1.92519 6.28569 1 7.24692 1 8.42855V19.8571C1 21.0388 1.92519 22 3.06251 22H20.9375C22.0748 22 23 21.0388 23 19.8571V8.42855C23 7.24692 22.0748 6.28569 20.9374 6.28569ZM7.87498 4.14287C7.87498 3.74876 8.18316 3.42858 8.56249 3.42858H15.4375C15.8168 3.42858 16.125 3.74876 16.125 4.14287V6.28573H7.87498V4.14287ZM21.6249 19.8571C21.6249 20.2512 21.3168 20.5714 20.9374 20.5714H3.06251C2.68319 20.5714 2.37501 20.2512 2.37501 19.8571V13.4285H9.24997V14.5714C9.24997 15.1237 9.69769 15.5714 10.25 15.5714H13.375H13.75C14.3023 15.5714 14.75 15.1237 14.75 14.5714V13.4285H21.6249V19.8571ZM21.6249 12L14.75 12V11.5714C14.75 11.0191 14.3023 10.5714 13.75 10.5714H13.375L13.375 14.1428L10.625 14.1428L10.625 12L13.375 12V10.5714H10.25C9.6977 10.5714 9.24998 11.0191 9.24998 11.5714V12H2.37501V8.42855C2.37501 8.03445 2.68319 7.71426 3.06251 7.71426H20.9375C21.3168 7.71426 21.625 8.03445 21.625 8.42855L21.6249 12Z"/>
</svg>
