<svg viewBox="0 0 24 24" xmlns="http://www.w3.org/2000/svg">
<path d="M15.3634 22.5C15.1307 22.5 14.9113 22.3911 14.7701 22.2055L5.05406 9.45555C4.88139 9.22894 4.85179 8.92364 4.97767 8.66787C5.10356 8.4121 5.36314 8.25014 5.64741 8.25H9.19966L7.90705 2.4126C7.8579 2.19049 7.91188 1.95799 8.05379 1.78055C8.19571 1.60311 8.41022 1.49991 8.63695 1.5H16.1108C16.4588 1.49991 16.7609 1.74089 16.8392 2.08118L19.0814 11.8312C19.1324 12.0539 19.0795 12.2878 18.9378 12.4667C18.796 12.6455 18.5807 12.7498 18.353 12.75H14.7401L16.1021 21.6361C16.1352 21.8523 16.0725 22.0723 15.9306 22.2384C15.7886 22.4044 15.5814 22.5 15.3634 22.5ZM7.16006 9.75L14.18 18.962L13.1304 12.1138C13.0973 11.8976 13.16 11.6776 13.3019 11.5116C13.4439 11.3456 13.651 11.25 13.869 11.25H17.414L15.5163 3H9.56941L10.862 8.8374C10.9112 9.05951 10.8572 9.29201 10.7153 9.46945C10.5734 9.64689 10.3588 9.75009 10.1321 9.75H7.16006Z"/>
</svg>
