<svg viewBox="0 0 16 16" xmlns="http://www.w3.org/2000/svg">
	<path d="M3.17241 14.6667C2.55172 14.6667 2 14.1169 2 13.4983V3.87633C2 3.25777 2.55172 2.70794 3.17241 2.70794H4.06897V1.81447C4.06897 1.54877 4.2851 1.33337 4.55172 1.33337C4.81834 1.33337 5.03448 1.54877 5.03448 1.81447V2.70794H10.9655V1.81447C10.9655 1.54877 11.1817 1.33337 11.4483 1.33337C11.7149 1.33337 11.931 1.54877 11.931 1.81447V2.70794H12.8276C13.4483 2.70794 14 3.25777 14 3.87633V13.4983C14 14.1169 13.4483 14.6667 12.8276 14.6667H3.17241ZM2.96552 13.0172C2.96552 13.3968 3.27429 13.7045 3.65517 13.7045H12.3448C12.7257 13.7045 13.0345 13.3968 13.0345 13.0172V6.41929H2.96552V13.0172ZM2.96552 5.45709H13.0345V4.35743C13.0345 3.97785 12.7257 3.67014 12.3448 3.67014H3.65517C3.27429 3.67014 2.96552 3.97785 2.96552 4.35743V5.45709Z"/>
	<path d="M4.66667 8.13337C4.66667 8.05974 4.72636 8.00004 4.8 8.00004H5.86667C5.9403 8.00004 6 8.05974 6 8.13337V9.20004C6 9.27368 5.9403 9.33337 5.86667 9.33337H4.8C4.72636 9.33337 4.66667 9.27368 4.66667 9.20004V8.13337Z"/>
	<path d="M7.33333 8.13337C7.33333 8.05974 7.39303 8.00004 7.46667 8.00004H8.53333C8.60697 8.00004 8.66667 8.05974 8.66667 8.13337V9.20004C8.66667 9.27368 8.60697 9.33337 8.53333 9.33337H7.46667C7.39303 9.33337 7.33333 9.27368 7.33333 9.20004V8.13337Z"/>
	<path d="M10 8.13337C10 8.05974 10.0597 8.00004 10.1333 8.00004H11.2C11.2736 8.00004 11.3333 8.05974 11.3333 8.13337V9.20004C11.3333 9.27368 11.2736 9.33337 11.2 9.33337H10.1333C10.0597 9.33337 10 9.27368 10 9.20004V8.13337Z"/>
	<path d="M10 10.8C10 10.7264 10.0597 10.6667 10.1333 10.6667H11.2C11.2736 10.6667 11.3333 10.7264 11.3333 10.8V11.8667C11.3333 11.9403 11.2736 12 11.2 12H10.1333C10.0597 12 10 11.9403 10 11.8667V10.8Z"/>
	<path d="M7.33333 10.8C7.33333 10.7264 7.39303 10.6667 7.46667 10.6667H8.53333C8.60697 10.6667 8.66667 10.7264 8.66667 10.8V11.8667C8.66667 11.9403 8.60697 12 8.53333 12H7.46667C7.39303 12 7.33333 11.9403 7.33333 11.8667V10.8Z"/>
	<path d="M4.66667 10.8C4.66667 10.7264 4.72636 10.6667 4.8 10.6667H5.86667C5.9403 10.6667 6 10.7264 6 10.8V11.8667C6 11.9403 5.9403 12 5.86667 12H4.8C4.72636 12 4.66667 11.9403 4.66667 11.8667V10.8Z"/>
</svg>
