<svg  viewBox="0 0 24 24"   xmlns="http://www.w3.org/2000/svg">
<path  d="M16.725 9.825C17.0149 9.53505 17.0149 9.06495 16.725 8.775C16.4351 8.48505 15.9649 8.48505 15.675 8.775L10.5 13.95L8.325 11.775C8.03505 11.4851 7.56495 11.4851 7.275 11.775C6.98505 12.0649 6.98505 12.5351 7.275 12.825L10.5 16.05L16.725 9.825ZM12 1.5C6.225 1.5 1.5 6.225 1.5 12C1.5 17.775 6.225 22.5 12 22.5C17.775 22.5 22.5 17.775 22.5 12C22.5 6.225 17.775 1.5 12 1.5ZM12 21C7.05 21 3 16.95 3 12C3 7.05 7.05 3 12 3C16.95 3 21 7.05 21 12C21 16.95 16.95 21 12 21Z"  />
</svg>
