<svg  viewBox="0 0 24 24"   xmlns="http://www.w3.org/2000/svg">
<path  d="M20.0916 12.5444C20.0916 12.3653 20.0916 12.1862 20.0916 12C20.0916 11.8138 20.0916 11.6347 20.0916 11.4484L21.5043 10.2379C22.038 9.77745 22.1559 9.01076 21.7839 8.41843L20.0474 5.55318C19.6958 4.96399 18.9666 4.6974 18.3035 4.91566L16.5155 5.50304C16.2074 5.30023 15.8854 5.11833 15.5516 4.95864L15.1837 3.15353C15.0448 2.47287 14.4248 1.98697 13.7121 2.00027H10.2611C9.54841 1.98697 8.92838 2.47287 8.78951 3.15353L8.4216 4.95864C8.08301 5.11544 7.75601 5.29495 7.44298 5.49588L5.69175 4.87985C5.01979 4.66776 4.28783 4.95038 3.94788 5.55318L2.21136 8.41843C1.86124 9.00917 1.98744 9.75829 2.51305 10.2092L3.90373 11.4556C3.90373 11.6347 3.90373 11.8138 3.90373 12C3.90373 12.1862 3.90373 12.3653 3.90373 12.5516L2.51305 13.755C1.96799 14.2105 1.84047 14.9826 2.21136 15.5816L3.94788 18.4468C4.29946 19.036 5.02869 19.3026 5.69175 19.0843L7.47977 18.497C7.78784 18.6998 8.10991 18.8817 8.44368 19.0414L8.81158 20.8465C8.95046 21.5271 9.57049 22.013 10.2832 21.9997H13.7562C14.4689 22.013 15.089 21.5271 15.2279 20.8465L15.5958 19.0414C15.9344 18.8846 16.2614 18.7051 16.5744 18.5041L18.355 19.0915C19.0044 19.2819 19.7032 19.0156 20.0474 18.4468L21.7839 15.5816C22.134 14.9908 22.0078 14.2417 21.4822 13.7908L20.0916 12.5444ZM18.7745 17.7305L16.2507 16.8996C15.6581 17.3825 14.9832 17.7607 14.2566 18.017L13.7342 20.5958H10.2612L9.73877 18.0528C9.0175 17.7915 8.34792 17.4111 7.75943 16.9282L5.22089 17.7305L3.48438 14.8653L5.49314 13.1533C5.35755 12.4117 5.35755 11.6527 5.49314 10.9112L3.48438 9.13474L5.22089 6.26949L7.74472 7.10041C8.33733 6.61752 9.0122 6.23933 9.73877 5.98297L10.2612 3.40424H13.7342L14.2566 5.94715C14.9779 6.2085 15.6475 6.58894 16.236 7.07176L18.7745 6.26949L20.511 9.13474L18.5023 10.8539C18.638 11.5954 18.638 12.3544 18.5023 13.096L20.511 14.8653L18.7745 17.7305ZM11.9979 16.2979C9.55961 16.2979 7.58301 14.3737 7.58301 12C7.58301 9.62634 9.55961 7.70212 11.9979 7.70212C14.4361 7.70212 16.4127 9.62634 16.4127 12C16.4247 13.1434 15.9634 14.2433 15.1328 15.0519C14.3023 15.8604 13.1724 16.3095 11.9979 16.2979ZM11.9977 9.13475C11.2117 9.11692 10.4524 9.41307 9.89637 9.95432C9.34039 10.4956 9.03618 11.2348 9.05449 12C9.03618 12.7652 9.34039 13.5044 9.89637 14.0457C10.4524 14.5869 11.2117 14.8831 11.9977 14.8653C12.7838 14.8831 13.5431 14.5869 14.0991 14.0457C14.6551 13.5044 14.9593 12.7652 14.941 12C14.9593 11.2348 14.6551 10.4956 14.0991 9.95432C13.5431 9.41307 12.7838 9.11692 11.9977 9.13475Z"  />
</svg>
