<svg viewBox="0 0 24 24" xmlns="http://www.w3.org/2000/svg">
	<path d="M17.2623 11.0906C17.5197 10.8366 17.9335 10.8367 18.1907 11.0909C18.4526 11.3496 18.4526 11.7724 18.1907 12.0311L12 18.1463L5.80926 12.0311C5.54736 11.7724 5.54736 11.3496 5.80926 11.0909C6.06652 10.8367 6.48028 10.8366 6.73771 11.0906L11.3333 15.6241V3.66667C11.3333 3.29848 11.6318 3 12 3C12.3682 3 12.6667 3.29848 12.6667 3.66667V15.6241L17.2623 11.0906ZM18.6667 17.7154C18.6667 17.3473 18.9651 17.0488 19.3333 17.0488C19.7015 17.0488 20 17.3473 20 17.7154V19.6829C20 20.4103 19.403 21 18.6667 21H5.33333C4.59695 21 4 20.4103 4 19.6829V17.7154C4 17.3473 4.29848 17.0488 4.66667 17.0488C5.03486 17.0488 5.33333 17.3473 5.33333 17.7154V19.6829H18.6667V17.7154Z" />
</svg>
