<svg viewBox="0 0 24 24" xmlns="http://www.w3.org/2000/svg">
<path fill-rule="evenodd" clip-rule="evenodd" d="M19 4.5H13C12.7239 4.5 12.5 4.72386 12.5 5V8H11V5C11 3.89543 11.8954 3 13 3H19C20.1046 3 21 3.89543 21 5V19C21 20.1046 20.1046 21 19 21H13C11.8954 21 11 20.1046 11 19V16H12.5V19C12.5 19.2761 12.7239 19.5 13 19.5H19C19.2761 19.5 19.5 19.2761 19.5 19V5C19.5 4.72386 19.2761 4.5 19 4.5ZM14.75 11.25H5.8725L9.02956 8.08652C9.32122 7.79426 9.32098 7.32098 9.02902 7.02902C8.73685 6.73685 8.26315 6.73685 7.97098 7.02902L3 12L7.97098 16.971C8.26315 17.2632 8.73685 17.2632 9.02902 16.971C9.32098 16.679 9.32122 16.2057 9.02956 15.9135L5.8725 12.75H14.75C15.1642 12.75 15.5 12.4142 15.5 12C15.5 11.5858 15.1642 11.25 14.75 11.25Z" />
</svg>
