<svg viewBox="0 0 48 48" xmlns="http://www.w3.org/2000/svg">
<path fill-rule="evenodd" clip-rule="evenodd" d="M39.5195 13.9505L28.3197 3.45049C28.0345 3.15421 27.6252 2.98978 27.1997 3.00049H11.1999C9.43267 3.00049 8 4.34364 8 6.00049V42.0005C8 43.6573 9.43267 45.0005 11.1999 45.0005H36.7995C38.5668 45.0005 39.9995 43.6573 39.9995 42.0005V15.0005C40.0109 14.6015 39.8355 14.2179 39.5195 13.9505ZM27.1997 6.60049L36.1595 15.0005H27.1997V6.60049ZM11.1999 6.00049V42.0005H36.7995V18.0005H27.1997C25.4324 18.0005 23.9997 16.6573 23.9997 15.0005V6.00049H11.1999ZM22.5039 21C22.5039 20.4477 22.9516 20 23.5039 20H24.5039C25.0562 20 25.5039 20.4477 25.5039 21V29.5C25.5039 30.0523 25.0562 30.5 24.5039 30.5H23.5039C22.9516 30.5 22.5039 30.0523 22.5039 29.5V21ZM22 35C22 33.8954 22.8954 33 24 33C25.1046 33 26 33.8954 26 35C26 36.1046 25.1046 37 24 37C22.8954 37 22 36.1046 22 35Z"/>
</svg>
