<svg  viewBox="0 0 24 24"   xmlns="http://www.w3.org/2000/svg">
<path  d="M12 1.5C6.225 1.5 1.5 6.225 1.5 12C1.5 17.775 6.225 22.5 12 22.5C17.775 22.5 22.5 17.775 22.5 12C22.5 6.225 17.775 1.5 12 1.5ZM12 21C7.05 21 3 16.95 3 12C3 7.05 7.05 3 12 3C16.95 3 21 7.05 21 12C21 16.95 16.95 21 12 21ZM12 18C12.6213 18 13.125 17.4963 13.125 16.875C13.125 16.2537 12.6213 15.75 12 15.75C11.3787 15.75 10.875 16.2537 10.875 16.875C10.875 17.4963 11.3787 18 12 18ZM12.75 6H11.625C9.75 6 8.25 7.5 8.25 9.375C8.25 9.58211 8.41789 9.75 8.625 9.75H9.375C9.58211 9.75 9.75 9.58211 9.75 9.375C9.75 8.325 10.575 7.5 11.625 7.5H12.75C13.8 7.5 14.625 8.325 14.625 9.375C14.625 10.425 13.8 11.25 12.75 11.25H12.25C11.6977 11.25 11.25 11.6977 11.25 12.25V13.5C11.25 13.9142 11.5858 14.25 12 14.25C12.4142 14.25 12.75 13.9142 12.75 13.5V12.75C14.625 12.75 16.125 11.25 16.125 9.375C16.125 7.5 14.625 6 12.75 6Z"  />
</svg>
