<svg  viewBox="0 0 24 24"   xmlns="http://www.w3.org/2000/svg">
<path  d="M12.75 10C12.75 9.44772 12.3023 9 11.75 9H10.5C10.0858 9 9.75 9.33579 9.75 9.75C9.75 10.1642 10.0858 10.5 10.5 10.5H11.25V15.75H9.75C9.33579 15.75 9 16.0858 9 16.5C9 16.9142 9.33579 17.25 9.75 17.25H14.25C14.6642 17.25 15 16.9142 15 16.5C15 16.0858 14.6642 15.75 14.25 15.75H12.75V10ZM10.875 6.375C10.875 6.99632 11.3787 7.5 12 7.5C12.6213 7.5 13.125 6.99632 13.125 6.375C13.125 5.75368 12.6213 5.25 12 5.25C11.3787 5.25 10.875 5.75368 10.875 6.375ZM12 22.5C6.20101 22.5 1.5 17.799 1.5 12C1.5 6.20101 6.20101 1.5 12 1.5C17.799 1.5 22.5 6.20101 22.5 12C22.4935 17.7963 17.7963 22.4935 12 22.5ZM12 3C7.02944 3 3 7.02944 3 12C3 16.9706 7.02944 21 12 21C16.9706 21 21 16.9706 21 12C20.9945 7.03173 16.9683 3.00554 12 3Z"  />
</svg>
