<svg viewBox="0 0 20 20" xmlns="http://www.w3.org/2000/svg">
	<path fill-rule="evenodd" clip-rule="evenodd" d="M9.99998 2.5C8.38915 2.5 7.08331 3.80584 7.08331 5.41667V10.4167C7.08331 12.0275 8.38915 13.3333 9.99998 13.3333C11.6108 13.3333 12.9166 12.0275 12.9166 10.4167V5.41667C12.9166 3.80584 11.6108 2.5 9.99998 2.5ZM11.6666 10.4167V5.41667C11.6666 4.49619 10.9205 3.75 9.99998 3.75C9.0795 3.75 8.33331 4.49619 8.33331 5.41667V10.4167C8.33331 11.3371 9.0795 12.0833 9.99998 12.0833C10.9205 12.0833 11.6666 11.3371 11.6666 10.4167Z"/>
	<path d="M9.37498 15.7977C6.67783 15.4878 4.58331 13.1968 4.58331 10.4167H5.83331C5.83331 12.7179 7.69879 14.5833 9.99998 14.5833C12.3012 14.5833 14.1666 12.7179 14.1666 10.4167H15.4166C15.4166 13.1968 13.3221 15.4878 10.625 15.7977V18.3333H9.37498V15.7977Z" />
</svg>
