<svg  viewBox="0 0 24 24"   xmlns="http://www.w3.org/2000/svg">
<path  d="M21.5325 15.4675L19.5 13.4425V10C19.5001 6.14826 16.5824 2.92267 12.75 2.5375V1.75C12.75 1.33579 12.4142 1 12 1C11.5858 1 11.25 1.33579 11.25 1.75V2.5375C7.41758 2.92267 4.49996 6.14826 4.50001 10V13.4425L2.46751 15.4675C2.32712 15.609 2.24886 15.8006 2.25001 16V18.25C2.25001 18.6642 2.5858 19 3.00001 19H8.25001C8.25001 21.0711 9.92894 22.75 12 22.75C14.0711 22.75 15.75 21.0711 15.75 19H21C21.4142 19 21.75 18.6642 21.75 18.25V16C21.7512 15.8006 21.6729 15.609 21.5325 15.4675ZM12 21.25C10.7574 21.25 9.75001 20.2426 9.75001 19H14.25C14.25 20.2426 13.2427 21.25 12 21.25ZM20.25 17.5H3.75001V16.3075L5.78251 14.275C5.92107 14.1353 5.99918 13.9468 6.00001 13.75V10C6.00001 6.68629 8.6863 4 12 4C15.3137 4 18 6.68629 18 10V13.75C17.9989 13.9494 18.0771 14.141 18.2175 14.2825L20.25 16.3075V17.5Z"  />
</svg>
