<svg  viewBox="0 0 24 24"  xmlns="http://www.w3.org/2000/svg">
<rect opacity="0.01"/>
<path  d="M18.2606 12.8473L11.6151 6.19153C10.3903 4.97401 8.41331 4.97769 7.19313 6.1998C5.97296 7.42192 5.96929 9.40208 7.18488 10.6288L13.8301 17.2866C14.1019 17.559 14.5428 17.559 14.8147 17.2866C15.0865 17.0142 15.0865 16.5728 14.8147 16.3004L8.16949 9.64261C7.48984 8.96189 7.48984 7.85843 8.16949 7.17771C8.84913 6.49699 9.95083 6.49699 10.6305 7.17771L17.2777 13.8335L18.7545 15.3125C19.9781 16.5385 19.9776 18.5257 18.7538 19.751C17.5298 20.9763 15.5459 20.976 14.3223 19.7501L13.0919 18.5173L6.20042 11.6148L5.70804 11.1218C3.98708 9.3442 4.00894 6.5123 5.75696 4.76134C7.50513 3.01054 10.3325 2.98865 12.1073 4.71235L19.491 12.108C19.667 12.284 19.9233 12.3528 20.1635 12.2883C20.4038 12.2239 20.5915 12.036 20.6559 11.7953C20.7202 11.5546 20.6514 11.298 20.4756 11.1218L13.0919 3.72633C10.7795 1.42081 7.04027 1.4251 4.73322 3.73597C2.42601 6.04669 2.42173 9.79189 4.72358 12.108L12.1073 19.5034L13.3396 20.7363C15.1166 22.4459 17.9329 22.4174 19.6749 20.672C21.4171 18.9267 21.4448 16.106 19.7375 14.3265L18.2606 12.8473Z"  />
</svg>
