<svg viewBox="0 0 24 24" xmlns="http://www.w3.org/2000/svg">
  <path d="M21.7799 21.7799C22.0728 21.487 22.0734 21.0123 21.7813 20.7186L16.6347 15.5447C19.453 12.1443 19.1013 7.12925 15.836 4.15538C12.5707 1.1815 7.54477 1.29881 4.42179 4.42179C1.29881 7.54477 1.1815 12.5707 4.15538 15.836C7.12925 19.1013 12.1443 19.453 15.5447 16.6347L20.7186 21.7813C21.0123 22.0734 21.487 22.0728 21.7799 21.7799ZM3.51804 10.283C3.51804 6.54673 6.54688 3.51789 10.2831 3.51789C14.0194 3.51789 17.0483 6.54673 17.0483 10.283C17.0483 14.0193 14.0194 17.0481 10.2831 17.0481C6.54688 17.0481 3.51804 14.0193 3.51804 10.283Z"  />
</svg>
