<svg  viewBox="0 0 24 24"   xmlns="http://www.w3.org/2000/svg">
<path  d="M16.3504 8.73071C16.0677 9.04046 15.5801 9.04068 15.2972 8.73118L11.9983 5.1225L8.69949 8.73118C8.41657 9.04068 7.92897 9.04046 7.64632 8.73071C7.39784 8.4584 7.39784 8.0416 7.64632 7.76929L11.9983 3L16.3504 7.76929C16.5989 8.0416 16.5989 8.4584 16.3504 8.73071ZM7.64632 15.2693C7.92897 14.9595 8.41657 14.9593 8.69949 15.2688L11.9983 18.8775L15.2972 15.2688C15.5801 14.9593 16.0677 14.9595 16.3504 15.2693C16.5989 15.5416 16.5989 15.9584 16.3504 16.2307L11.9983 21L7.64632 16.2307C7.39784 15.9584 7.39784 15.5416 7.64632 15.2693Z"  />
</svg>
